<svg width="505" height="90" viewBox="0 0 505 90" fill="none" xmlns="http://www.w3.org/2000/svg">
<path d="M0 45C0 20.1472 20.1472 0 45 0C69.8528 0 90 20.1472 90 45C90 69.8528 69.8528 90 45 90H0V45Z" fill="url(#paint0_linear_2528_2659)"/>
<path d="M47.6413 54L0.000701511 54L0.000701904 45L56.9362 45L47.6413 54ZM29.0486 72L0.000700724 72L0.000701117 63L38.3454 63L29.0486 72ZM10.4568 90L0.000699937 90L0.000700331 81L19.7527 81L10.4568 90Z" fill="url(#paint1_linear_2528_2659)"/>
<path d="M153.019 90C145.323 90 138.522 88.2122 132.614 84.6365C126.784 81.0608 122.237 76.086 118.972 69.7119C115.708 63.3379 114.075 55.9145 114.075 47.4417C114.075 38.9689 115.708 31.5844 118.972 25.2881C122.237 18.914 126.784 13.9392 132.614 10.3635C138.522 6.78784 145.323 5 153.019 5C161.647 5 169.071 7.1765 175.289 11.5295C181.585 15.8048 186.094 21.7124 188.814 29.2524L174.59 34.4993C172.879 29.7577 170.159 26.0654 166.428 23.4225C162.774 20.7796 158.305 19.4582 153.019 19.4582C148.2 19.4582 143.963 20.5853 140.31 22.8395C136.734 25.0937 133.975 28.3196 132.031 32.5171C130.166 36.6369 129.233 41.6118 129.233 47.4417C129.233 53.2716 130.166 58.2853 132.031 62.4828C133.975 66.6804 136.734 69.9063 140.31 72.1605C143.963 74.4147 148.2 75.5418 153.019 75.5418C158.305 75.5418 162.774 74.2204 166.428 71.5775C170.159 68.9346 172.879 65.2423 174.59 60.5007L188.814 65.631C186.094 73.171 181.585 79.1175 175.289 83.4705C169.071 87.8235 161.647 90 153.019 90Z" fill="#F9FAFB"/>
<path d="M190.332 88.1344L222.979 6.86557H234.289L266.937 88.1344H250.496L228.809 29.1358L206.772 88.1344H190.332ZM211.786 72.2771L216.45 58.7517H240.935L245.832 72.2771H211.786Z" fill="#F9FAFB"/>
<path d="M274.962 88.1344V32.7992C274.962 32.3906 275.447 32.1211 275.815 32.2985C276.933 32.837 279.148 33.6351 282.462 33.6351C285.792 33.6351 288.032 32.8287 289.156 32.2902C289.523 32.1144 290.003 32.3831 290.003 32.7899V88.1344H274.962Z" fill="#F9FAFB"/>
<path d="M331.305 89.6502C322.677 89.6502 315.565 87.396 309.968 82.8875C304.449 78.3791 301.107 72.3937 299.941 64.9314L314.632 61.3169C315.487 66.2917 317.43 70.0229 320.462 72.5103C323.571 74.9977 327.38 76.2414 331.888 76.2414C334.298 76.2414 336.436 75.8528 338.301 75.0754C340.245 74.2204 341.76 73.0155 342.849 71.4609C344.015 69.8285 344.598 67.9241 344.598 65.7476C344.598 63.7266 344.015 61.9776 342.849 60.5007C341.683 59.0238 339.895 57.6635 337.485 56.4198C335.153 55.176 332.199 53.8935 328.624 52.572C323.493 50.551 319.179 48.4133 315.681 46.1591C312.261 43.8272 309.696 41.1454 307.986 38.1139C306.276 35.0823 305.421 31.5066 305.421 27.3868C305.421 23.0338 306.47 19.1861 308.569 15.8436C310.745 12.5011 313.738 9.85825 317.547 7.91496C321.433 5.97165 325.942 5 331.072 5C336.514 5 341.333 6.28258 345.53 8.84774C349.806 11.3352 353.226 15.0663 355.791 20.0412L343.781 27.3868C342.149 24.433 340.206 22.2177 337.952 20.7407C335.775 19.1861 333.326 18.4088 330.606 18.4088C328.663 18.4088 326.914 18.7974 325.359 19.5748C323.882 20.2743 322.677 21.2849 321.744 22.6063C320.889 23.85 320.462 25.3269 320.462 27.037C320.462 28.8249 320.967 30.4184 321.978 31.8176C323.066 33.2167 324.776 34.577 327.108 35.8985C329.518 37.1422 332.627 38.4636 336.436 39.8628C341.488 41.7284 345.686 43.7883 349.028 46.0425C352.449 48.2968 355.053 50.9396 356.84 53.9712C358.628 56.925 359.522 60.5396 359.522 64.8148C359.522 69.6342 358.317 73.9483 355.908 77.7572C353.576 81.4883 350.311 84.4033 346.113 86.5021C341.916 88.6008 336.98 89.6502 331.305 89.6502Z" fill="#F9FAFB"/>
<path d="M370.003 88.1344V6.86557H424.104V20.3909H385.044V39.7462H421.539V53.155H385.044V74.6091H424.104V88.1344H370.003Z" fill="#F9FAFB"/>
<path d="M461.069 88.1344V56.3032L432.503 6.86557H449.759L468.182 41.3786L487.304 6.86557H504.444L476.111 56.3032V88.1344H461.069Z" fill="#F9FAFB"/>
<path d="M292.5 11.25C292.5 16.7728 288.023 21.25 282.5 21.25C276.978 21.25 272.5 16.7728 272.5 11.25C272.5 5.72715 276.978 1.25 282.5 1.25C288.023 1.25 292.5 5.72715 292.5 11.25Z" fill="#5273E0"/>
<defs>
<linearGradient id="paint0_linear_2528_2659" x1="36.766" y1="-32.3684" x2="122.381" y2="66.7428" gradientUnits="userSpaceOnUse">
<stop offset="0.269231" stop-color="#5C85D6"/>
<stop offset="1" stop-color="#3713EC"/>
</linearGradient>
<linearGradient id="paint1_linear_2528_2659" x1="-37" y1="45" x2="49.9981" y2="45.0049" gradientUnits="userSpaceOnUse">
<stop stop-color="#5273E0"/>
<stop offset="0.644231" stop-color="#FEFEFE"/>
</linearGradient>
</defs>
</svg>
